<svg version="1.2" xmlns="http://www.w3.org/2000/svg" width="146" height="39"><path fill-rule="evenodd" d="M.1 27.8c.1-.2 6.4-12.9 6.6-13.2.1-.4.3-.4.5-.5L42.4.1s.5-.2.9 0c.4.3.5.7.5.7l6.2 37s.1.5-.3.8c-.4.4-.9.3-.9.3l-48-9.8s-.4-.1-.6-.4c-.3-.3-.2-.7-.1-.9zm35.9-6L25.7 24l20 11.1zM2.7 26.9l17.9-3.7-12.5-7zm20.5-4.3l12.4-2.5 5.6-17.6L9.6 15.1zM42.4 5.1l-4.9 15.5L47.3 34zM22.8 24.5L5.3 28.1l38.1 7.8z" fill="#a3bbc8"/><text transform="translate(62 32)"><tspan x="0" y="0" style="line-height:58px;white-space:pre" font-size="36" fill="#436372" font-weight="500" font-family="&quot;Rubik-Medium&quot;,&quot;Rubik&quot;">Glee.</tspan></text></svg>