<svg version="1.2" xmlns="http://www.w3.org/2000/svg" width="20" height="21"><path d="M2.1 4.9C1 4.9 0 3.9 0 2.7 0 1.5 1 .6 2.1.6c1.2 0 2.2.9 2.2 2.1 0 1.2-1 2.2-2.2 2.2zm0 7.8C1 12.7 0 11.8 0 10.6c0-1.2 1-2.1 2.1-2.1 1.2 0 2.2.9 2.2 2.1 0 1.2-1 2.1-2.2 2.1zm0 7.9C1 20.6 0 19.7 0 18.5c0-1.2 1-2.2 2.1-2.2 1.2 0 2.2 1 2.2 2.2 0 1.2-1 2.1-2.2 2.1zM10 4.9c-1.2 0-2.1-1-2.1-2.2 0-1.2.9-2.1 2.1-2.1 1.2 0 2.2.9 2.2 2.1 0 1.2-1 2.2-2.2 2.2zm0 7.8c-1.2 0-2.1-.9-2.1-2.1 0-1.2.9-2.1 2.1-2.1 1.2 0 2.2.9 2.2 2.1 0 1.2-1 2.1-2.2 2.1zm0 7.9c-1.2 0-2.1-.9-2.1-2.1 0-1.2.9-2.2 2.1-2.2 1.2 0 2.2 1 2.2 2.2 0 1.2-1 2.1-2.2 2.1zm7.9-15.7c-1.2 0-2.2-1-2.2-2.2 0-1.2 1-2.1 2.2-2.1 1.2 0 2.1.9 2.1 2.1 0 1.2-.9 2.2-2.1 2.2zm0 7.8c-1.2 0-2.2-.9-2.2-2.1 0-1.2 1-2.1 2.2-2.1 1.2 0 2.1.9 2.1 2.1 0 1.2-.9 2.1-2.1 2.1zm0 7.9c-1.2 0-2.2-.9-2.2-2.1 0-1.2 1-2.2 2.2-2.2 1.2 0 2.1 1 2.1 2.2 0 1.2-.9 2.1-2.1 2.1z" fill="#fff"/></svg>