<svg version="1.2" xmlns="http://www.w3.org/2000/svg" width="55" height="54"><path d="M45 33.6c5.4 0 9.8 4.4 9.8 9.8s-4.4 9.8-9.8 9.8-9.8-4.4-9.8-9.8 4.4-9.8 9.8-9.8z" opacity=".3" fill="#a3bbc8"/><path d="M46.3 11.7c-.3-.5-.8-.6-1.3-.3-.4.2-.6.8-.3 1.3 2.3 3.6 3.4 7.7 3.4 11.9 0 12.6-10.1 22.7-22.6 22.7-5 0-9.7-1.5-13.6-4.5-.5-.3-1-.2-1.4.2-.3.4-.2 1 .2 1.3 4.3 3.2 9.4 4.9 14.8 4.9C39 49.2 50 38.2 50 24.6c0-4.6-1.3-9-3.7-12.9zm-23 21.9h-7.6l4.8-4.7c2.4-2.4 3.7-5.7 3.7-9.1 0-3.2-2.6-5.8-5.8-5.8-3.2 0-5.9 2.6-5.9 5.8 0 .5.5 1 1 1s.9-.5.9-1c0-2.2 1.8-3.9 4-3.9s3.9 1.7 3.9 3.9c0 2.9-1.1 5.7-3.2 7.7l-6.3 6.4c-.3.3-.3.7-.2 1 .1.4.5.6.9.6h9.8c.5 0 .9-.4.9-1 0-.5-.4-.9-.9-.9zm15-6.4h-2.6v-1.5c0-.6-.4-1-.9-1s-1 .4-1 1v1.5h-5.2l5.2-8.9v4.2c0 .5.5 1 1 1s.9-.5.9-1v-7.6c0-.3-.1-.6-.4-.8-.5-.3-1.1-.1-1.3.3l-7.9 13.2c-.2.3-.2.7 0 1 .2.3.5.4.8.4h6.9v5.5c0 .6.5 1 1 1s.9-.4.9-1V29h2.6c.5 0 1-.4 1-.9s-.5-.9-1-.9zm5.4-22.7c-.1-.5-.5-.9-1-.9s-.9.5-.9 1v1.7Q39 3.8 35.5 2.2C32.3.8 28.9.1 25.5.1 11.9.1.9 11.1.9 24.6c0 6.7 2.6 12.9 7.4 17.6q.3.2.6.2.4 0 .7-.2c.4-.4.4-1 0-1.4-4.4-4.3-6.8-10-6.8-16.1C2.8 12.1 13 2 25.5 2 31 2 36.4 4 40.6 7.7l-1.9.1c-.5 0-.9.4-.9.9s.4 1 .9 1h.1l4-.1c.5-.1 1-.5.9-1z" fill="#a3bbc8"/></svg>