<svg version="1.2" xmlns="http://www.w3.org/2000/svg" viewBox="0 0 55 54" width="55" height="54"><style>.a{opacity:.3;fill:#a3bbc8}.b{fill:#a3bbc8}</style><path class="a" d="m45 33.6c5.4 0 9.8 4.4 9.8 9.8 0 5.4-4.4 9.8-9.8 9.8-5.4 0-9.8-4.4-9.8-9.8 0-5.4 4.4-9.8 9.8-9.8z"/><path class="b" d="m46.3 11.7c-0.3-0.5-0.8-0.6-1.3-0.3-0.4 0.2-0.6 0.8-0.3 1.3 2.3 3.6 3.4 7.7 3.4 11.9 0 12.6-10.1 22.7-22.6 22.7-5 0-9.7-1.5-13.6-4.5-0.5-0.3-1-0.2-1.4 0.2-0.3 0.4-0.2 1 0.2 1.3 4.3 3.2 9.4 4.9 14.8 4.9 13.5 0 24.5-11 24.5-24.6 0-4.6-1.3-9-3.7-12.9zm-23 21.9h-7.6l4.8-4.7c2.4-2.4 3.7-5.7 3.7-9.1 0-3.2-2.6-5.8-5.8-5.8-3.2 0-5.9 2.6-5.9 5.8 0 0.5 0.5 1 1 1 0.5 0 0.9-0.5 0.9-1 0-2.2 1.8-3.9 4-3.9 2.2 0 3.9 1.7 3.9 3.9 0 2.9-1.1 5.7-3.2 7.7l-6.3 6.4c-0.3 0.3-0.3 0.7-0.2 1 0.1 0.4 0.5 0.6 0.9 0.6h9.8c0.5 0 0.9-0.4 0.9-1 0-0.5-0.4-0.9-0.9-0.9zm15-6.4h-2.6v-1.5c0-0.6-0.4-1-0.9-1-0.5 0-1 0.4-1 1v1.5h-5.2l5.2-8.9v4.2c0 0.5 0.5 1 1 1 0.5 0 0.9-0.5 0.9-1v-7.6q0 0 0 0c0-0.3-0.1-0.6-0.4-0.8-0.5-0.3-1.1-0.1-1.3 0.3l-7.9 13.2c-0.2 0.3-0.2 0.7 0 1 0.2 0.3 0.5 0.4 0.8 0.4h6.9v5.5c0 0.6 0.5 1 1 1 0.5 0 0.9-0.4 0.9-1v-5.5h2.6c0.5 0 1-0.4 1-0.9 0-0.5-0.5-0.9-1-0.9zm5.4-22.7c-0.1-0.5-0.5-0.9-1-0.9-0.5 0-0.9 0.5-0.9 1v1.7q-2.8-2.5-6.3-4.1c-3.2-1.4-6.6-2.1-10-2.1-13.6 0-24.6 11-24.6 24.5 0 6.7 2.6 12.9 7.4 17.6q0.3 0.2 0.6 0.2 0.4 0 0.7-0.2c0.4-0.4 0.4-1 0-1.4-4.4-4.3-6.8-10-6.8-16.1 0-12.6 10.2-22.7 22.7-22.7 5.5 0 10.9 2 15.1 5.7l-1.9 0.1c-0.5 0-0.9 0.4-0.9 0.9 0 0.5 0.4 1 0.9 1q0.1 0 0.1 0l4-0.1c0.5-0.1 1-0.5 0.9-1z"/></svg>